<?xml version="1.0" encoding="UTF-8"?><svg id="Capa_2" xmlns="http://www.w3.org/2000/svg" viewBox="0 0 58.25 46.4"><defs><style>.cls-1{fill:#7010e8;}.cls-2{fill:#7e12f8;}.cls-3{fill:#6e10df;}.cls-4{fill:#7811f5;}.cls-5{fill:#7b12f7;}.cls-6{fill:#f7f1fd;}</style></defs><g id="Capa_3"><g><path class="cls-4" d="M46.65,46.4H11.6c-.23-.05-.46-.04-.69-.06-.85-.08-1.57-.48-2.23-.99-1.31-1.02-2.08-2.36-2.32-4.01-.07-.47-.06-.94-.04-1.42,.04-.9,.06-1.81-.01-2.71-.03-.41-.03-.82-.05-1.23-.09-1.44-.27-2.86-.57-4.27-.25-1.17-.59-2.3-1.12-3.38-.64-1.3-1.49-2.43-2.84-3.07-.46-.22-.94-.35-1.44-.43-.11-.02-.21-.03-.28-.13v-3.01c.07-.09,.17-.11,.28-.13,.9-.14,1.71-.47,2.42-1.05,.64-.52,1.15-1.16,1.55-1.88,.9-1.6,1.34-3.35,1.65-5.15,.16-.9,.26-1.81,.32-2.72,.03-.37,.05-.74,.07-1.11,.03-.78,.04-1.57,.05-2.35,0-.45-.05-.89-.05-1.33,0-1.49,.45-2.84,1.4-3.99,.71-.86,1.59-1.49,2.66-1.84,.32-.11,.66-.1,.99-.13,.07,0,.15,.02,.21-.02H46.65c.23,.05,.46,.04,.69,.06,.85,.07,1.56,.46,2.2,.97,1.38,1.08,2.19,2.48,2.37,4.24,.05,.44,.03,.88,.01,1.33-.04,.82-.05,1.65,0,2.47,.03,.45,.03,.9,.06,1.36,.13,2.08,.43,4.13,1.08,6.12,.37,1.13,.86,2.2,1.62,3.13,.81,.99,1.82,1.63,3.09,1.87,.16,.03,.35,.01,.47,.16v3.01c-.07,.09-.17,.11-.28,.13-.92,.15-1.76,.49-2.48,1.09-.63,.53-1.13,1.17-1.53,1.89-.87,1.58-1.31,3.3-1.61,5.06-.18,1.06-.28,2.13-.35,3.2-.08,1.19-.12,2.37-.07,3.56,.03,.73,.06,1.46-.12,2.17-.51,2.13-1.77,3.63-3.84,4.41-.36,.13-.74,.12-1.11,.16-.07,0-.15-.02-.21,.02Z"/><path class="cls-6" d="M35.87,23.21c.78,.44,1.48,.98,2.02,1.7,.91,1.21,1.25,2.59,1.16,4.08-.07,1.36-.46,2.62-1.31,3.71-.98,1.26-2.31,2-3.82,2.43-1.21,.35-2.46,.46-3.72,.46-3.25,0-6.5,0-9.75,0-.22,0-.28-.06-.28-.28,0-8.08,0-16.16,0-24.24,0-.24,.06-.29,.29-.29,3.39,.01,6.78,0,10.17,.02,1.49,0,2.92,.32,4.23,1.06,1.41,.8,2.35,1.97,2.76,3.55,0,.02,.02,.04,.03,.06,.19,.3,.18,.65,.24,.99,.02,.09,.02,.18,.04,.26,.01,.16,0,.33,0,.49-.07,.83-.26,1.63-.66,2.36-.72,1.33-1.77,2.27-3.21,2.77-.12,.04-.24,.07-.36,.06,.63,.07,1.23,.27,1.81,.51,.14,.06,.25,.15,.33,.28Z"/><path class="cls-3" d="M37.82,16.75c-.02-.42-.11-.84-.16-1.25,.14-.04,.13,.1,.15,.16,.13,.34,.19,.7,.23,1.06,.11,.99,.01,1.96-.38,2.89-.31,.74-.75,1.39-1.3,1.97-.15,.16-.3,.32-.43,.49-.23,.32-.33,.64-.1,1.01,.02,.04,.02,.09,.03,.14-.57-.25-1.14-.49-1.75-.6-.25-.05-.51-.09-.76-.14,2.65-.73,4.15-2.44,4.46-5.19,.02-.18,.02-.35,0-.53Z"/><path class="cls-2" d="M24.22,17.67c0-1.14,0-2.28,0-3.42,0-.13,0-.21,.17-.21,1.92,.03,3.83-.05,5.75,.05,.81,.04,1.58,.24,2.26,.7,1.14,.77,1.48,1.9,1.35,3.19-.17,1.71-1.26,2.59-2.81,3.04-.7,.2-1.41,.28-2.13,.29-1.46,.01-2.93,0-4.39,.01-.18,0-.21-.06-.21-.22,0-1.14,0-2.28,0-3.42Z"/><path class="cls-1" d="M29.57,24.36c.79-.01,1.57,.09,2.34,.28,.6,.15,1.16,.39,1.66,.75,.9,.65,1.29,1.56,1.35,2.64,.06,1.16-.18,2.23-1.08,3.05-.67,.61-1.5,.93-2.38,1.1-.61,.12-1.23,.16-1.85,.16-1.72,0-3.45,0-5.17,0-.17,0-.24-.03-.24-.22,0-2.53,0-5.06,0-7.6,0-.06,.01-.11,.02-.17,.05-.03,.11-.02,.17-.02,1.67,0,3.35,0,5.02,0,.05,0,.1,0,.14,.02Z"/><path class="cls-5" d="M29.57,24.36c-1.78,0-3.55,0-5.33,0,.05,0,.11-.02,.16-.02,1.67,0,3.33,0,5,0,.06,0,.11,.01,.17,.02Z"/><path class="cls-4" d="M37.82,16.75c.06,.18,.06,.35,0,.53v-.53Z"/><path class="cls-5" d="M27.56,32.09c-.49-.07-.98,.09-1.47,.04-.31-.03-.61-.1-.87-.32-.3-.26-.41-.59-.41-.95,0-1.37-.17-2.74-.11-4.12,.02-.35,.09-.7,.29-.99,.2-.28,.5-.43,.85-.46,.76-.08,1.51-.06,2.27,.02,.43,.05,.87,0,1.31,.02,.68,.05,1.38,.12,2.03,.33,.52,.17,1.1,.32,1.49,.72,.46,.47,.86,.99,.97,1.69,.15,.96,.03,1.84-.63,2.59-.45,.51-1.03,.8-1.68,.96-.7,.18-1.4,.28-2.13,.31-.64,.03-1.28,.17-1.93,.13Z"/></g></g></svg>