<?xml version="1.0" encoding="UTF-8"?><svg id="Capa_2" xmlns="http://www.w3.org/2000/svg" viewBox="0 0 53.04 59.04"><defs><style>.cls-1{fill:#3398fe;}.cls-2{fill:#2277fe;}.cls-3{fill:#fefefe;}</style></defs><g id="Capa_2-2"><g><path class="cls-2" d="M.31,0H52.86c.31,.6,.12,1.23,.07,1.83-.46,4.89-.86,9.79-1.29,14.68-.36,4.14-.73,8.29-1.08,12.43-.28,3.3-.59,6.59-.88,9.89-.3,3.43-.63,6.85-.88,10.28-.07,.92-.19,1.83-.25,2.74-.06,.89-.53,1.42-1.4,1.67-5.99,1.7-11.98,3.46-17.97,5.15-.63,.18-1.3,.11-1.92,.36h-1.18c-5.38-1.03-10.55-2.84-15.84-4.22-1.52-.4-3.04-.82-4.55-1.27-1.21-.36-1.46-.72-1.56-1.94-.35-4.57-.75-9.13-1.12-13.7-.29-3.59-.56-7.18-.87-10.77-.31-3.59-.58-7.18-.89-10.76-.3-3.52-.58-7.05-.86-10.57-.1-1.27-.19-2.55-.32-3.82C.02,1.32-.15,.62,.31,0Z"/><path class="cls-3" d="M11.73,29.94c-.52-1.92-.59-3.92-.94-5.87-.09-.49,.45-.5,.75-.63,4.52-1.98,9.04-3.93,13.56-5.9,.28-.12,.55-.27,.78-.55-2.34,0-4.68,0-7.02,0-2.56,0-5.11-.01-7.67,0-.56,0-.81-.13-.87-.74-.16-1.62-.34-3.25-.64-4.85-.15-.8,.05-.92,.78-.92,5.01,.03,10.02,.02,15.04,.01,.39,0,.78-.03,1.17-.05,.34-.34,.78-.31,1.2-.31,4.56,0,9.11-.01,13.67,0,1.35,0,1.54,.21,1.56,1.54,.02,1.44,0,2.88,0,4.33,0,.73-.28,1.25-.98,1.54-4.39,1.83-8.79,3.6-13.14,5.39,3.82,0,7.71-.02,11.6,0,1.12,0,1.42,.32,1.31,1.45-.29,3.1-.54,6.2-.82,9.29-.25,2.74-.5,5.48-.71,8.22-.13,1.59-.32,1.86-1.85,2.34-3.5,1.11-7.01,2.18-10.51,3.28-.43,.13-.85,.39-1.32,.13-4.31-1.19-8.61-2.4-12.92-3.56-.75-.2-1.02-.52-1.07-1.32-.18-2.84-.46-5.67-.72-8.5-.05-.55-.01-.84,.67-.82,1.7,.05,3.41,.03,5.11,0,.49,0,.68,.14,.74,.64,.14,1.3,.34,2.59,.48,3.89,.04,.38,.17,.54,.57,.64,2,.48,3.99,1.01,5.98,1.51,.39,.1,.78,.06,1.17-.03,.34-.36,.79-.44,1.24-.53,1.48-.3,2.96-.57,4.45-.83,.72-.13,1.09-.44,1.17-1.19,.24-2.15,.41-4.31,.66-6.45,.07-.58-.18-.87-.76-.87-.2,0-.39,0-.59-.01-6.81-.27-13.63-.2-20.44-.21-.23,0-.46,.04-.68-.07Z"/><path class="cls-1" d="M26.68,47.65c4.05-1.26,8.1-2.55,12.16-3.77,.82-.25,1.15-.64,1.22-1.48,.5-6,1.02-11.99,1.57-17.99,.08-.91-.08-1.23-1.09-1.22-4.16,.06-8.33,.03-12.57,.03,.22-.4,.6-.43,.89-.55,4.38-1.8,8.77-3.6,13.17-5.36,.66-.26,.88-.6,.86-1.3-.05-1.51-.07-3.02,0-4.52,.04-.85-.27-1.02-1.06-1.02-4.85,.03-9.7,.02-14.56,.02-.2,0-.39-.03-.59-.04,0-1.74,.04-3.48-.02-5.21-.03-.81,.36-1.03,1.02-1.1,.23-.02,.46,0,.69,0,6.1,0,12.19,0,18.29,0,1.74,0,1.75,.08,1.53,1.78-.22,1.71-.29,3.44-.44,5.16-.25,2.82-.51,5.64-.76,8.45-.15,1.72-.26,3.44-.43,5.16-.27,2.69-.4,5.38-.74,8.06-.23,1.84-.28,3.7-.44,5.55-.23,2.66-.77,5.32-.67,7.96,.09,2.39-1.15,2.88-2.99,3.37-4.72,1.26-9.41,2.66-14.11,4.03-.68,.2-.98,.15-.95-.7,.06-1.77,.02-3.54,.02-5.31Z"/><path class="cls-1" d="M11.73,29.94c7.34,0,14.68,0,22.02-.01,.63,0,.88,.15,.81,.82-.28,2.53-.54,5.07-.78,7.61-.06,.59-.5,.53-.85,.6-2.08,.4-4.17,.77-6.25,1.16,0-3.01-.02-6.01,.02-9.02,.01-.78-.23-.99-1-.99-4.31,.03-8.63,.02-12.94,.01-.34,0-.73,.13-1.03-.17Z"/></g></g></svg>