<?xml version="1.0" encoding="UTF-8"?><svg id="Capa_2" xmlns="http://www.w3.org/2000/svg" viewBox="0 0 51.68 58.63"><defs><style>.cls-1{fill:#e34d26;}.cls-2{fill:#f06529;}.cls-3{fill:#e34c26;}.cls-4{fill:#eaeaea;}.cls-5{fill:#fefefe;}.cls-6{fill:#ededed;}</style></defs><g id="Capa_1-2"><g><path class="cls-3" d="M25.66,58.63c-.3-.17-.65-.22-.97-.31-6.58-1.83-13.16-3.65-19.74-5.46-.19-.05-.27-.13-.29-.34-.29-3.31-.59-6.62-.89-9.93-.31-3.52-.62-7.04-.93-10.56-.27-3.07-.55-6.13-.83-9.2-.25-2.84-.5-5.69-.75-8.53-.25-2.84-.51-5.69-.77-8.53C.33,3.94,.18,2.12,0,.29-.02,.02,.09,0,.3,0c3.03,0,6.06,0,9.09,0,13.92,0,27.85,0,41.77,0,.09,0,.18,0,.27,0,.2-.02,.26,.05,.24,.25-.1,.99-.19,1.98-.27,2.96-.17,1.93-.34,3.85-.51,5.78-.17,1.92-.34,3.83-.51,5.75-.17,1.94-.35,3.87-.52,5.81-.17,1.95-.35,3.89-.52,5.84-.17,1.93-.34,3.85-.51,5.78-.17,1.92-.34,3.83-.51,5.75-.17,1.96-.35,3.91-.52,5.87-.17,1.91-.34,3.81-.51,5.72-.09,.99-.19,1.98-.26,2.97-.02,.24-.12,.3-.31,.36-3.26,.9-6.51,1.8-9.77,2.7-3.64,1.01-7.27,2.02-10.9,3.03-.05,.01-.09,.04-.13,.06h-.24Z"/><path class="cls-2" d="M25.84,10.77c0-1.99,0-3.97,0-5.96q0-.48,.46-.48c6.73,0,13.46,0,20.19,0,.44,0,.48,.02,.45,.46-.08,1.02-.19,2.03-.28,3.05-.07,.74-.14,1.49-.2,2.24-.1,1.07-.19,2.13-.29,3.2-.09,1.01-.17,2.01-.26,3.02-.09,1.04-.19,2.07-.28,3.11-.09,.99-.17,1.97-.26,2.96-.09,1.04-.19,2.07-.28,3.11-.07,.79-.13,1.57-.2,2.36-.09,1.02-.19,2.03-.28,3.05-.07,.77-.14,1.53-.2,2.3-.1,1.07-.19,2.13-.29,3.2-.09,1-.17,1.99-.26,2.99-.09,1.03-.19,2.05-.28,3.08-.07,.78-.13,1.55-.2,2.33-.09,1.03-.19,2.05-.28,3.08-.03,.35-.07,.71-.08,1.06,0,.31-.12,.48-.43,.56-1.92,.53-3.85,1.07-5.77,1.61-2.7,.75-5.4,1.51-8.11,2.26-.83,.23-1.66,.46-2.49,.69-.34,.1-.36,.09-.36-.28,0-1.94,0-3.87,0-5.81,0-.17,.02-.35-.06-.51,.01-.08,.07-.12,.14-.16,.42-.22,.88-.29,1.33-.42,3.72-1.03,7.43-2.07,11.15-3.09,.36-.1,.54-.28,.57-.67,.09-1.05,.19-2.1,.28-3.14,.11-1.25,.23-2.5,.34-3.75,.09-1.01,.18-2.02,.27-3.02,.11-1.26,.22-2.52,.34-3.78,.09-1.03,.19-2.05,.27-3.08,.04-.54,.09-1.09,.15-1.63,.06-.54-.02-.65-.58-.65-4.43,0-8.85,0-13.28,0-.32,0-.65,0-.97-.02-1.2,.03-2.41,.01-3.61,.01-1.47,0-2.93,0-4.4,0-.17,0-.41,.07-.47-.2,.09-.17,.26-.14,.4-.15,.6-.01,1.2,0,1.79,0,1.8,0,3.61,0,5.41,0,.13,0,.26,0,.39-.01,.22-.03,.34-.15,.37-.38,.01-.12,0-.24,0-.36,0-1.69,0-3.38,0-5.08,0-.21-.01-.43,.09-.62,.09-.11,.22-.1,.34-.11,.19-.01,.38,0,.58,0,4.63,0,9.26,0,13.88,0,.64,0,.71-.04,.77-.66,.16-1.64,.32-3.28,.45-4.93,.05-.54-.04-.61-.59-.61-4.82,0-9.64,0-14.46,0-.2,0-.41,0-.61,0-.12,0-.25,0-.31-.15Z"/><path class="cls-6" d="M25.84,10.77c.13,0,.26,.01,.39,.01,5.15,0,10.29,0,15.44,0,.31,0,.37,.08,.34,.37-.19,1.94-.37,3.89-.54,5.84-.02,.28-.17,.29-.38,.29-4.94,0-9.89,0-14.83,0-.14,0-.28,.01-.42,.02-.12,.16-.3,.14-.47,.15-.89,0-1.78,0-2.67,0-1.69,0-3.38,0-5.07,0-.11,0-.22,0-.33,0-.3,.03-.4,.14-.38,.43,.04,.67,.1,1.33,.17,1.99,.11,1.19,.21,2.38,.33,3.56,.02,.15,0,.3-.09,.44,.11,.06,.24,.03,.36,.03,2.62,0,5.24,0,7.87,0,.1,0,.2,0,.3,0,.13,.11,.15,.26,.15,.41,0,1.88,0,3.76,0,5.64,0,.13,0,.26-.09,.37l-.05,.04c-.13,0-.26-.02-.39-.02-4.58,0-9.16,0-13.74,0-.27,0-.36-.07-.39-.34-.18-2.13-.37-4.26-.57-6.39-.19-2.13-.39-4.26-.58-6.38-.17-1.91-.34-3.81-.51-5.72v-.06q-.06-.68,.64-.68c5.05,0,10.09,0,15.14,0,.13,0,.26,0,.39-.02Z"/><path class="cls-4" d="M25.91,47.39l-.12,.07c-1.65-.47-3.31-.94-4.96-1.4-2.67-.75-5.33-1.49-8-2.23-.19-.05-.27-.14-.29-.35-.25-2.9-.52-5.81-.78-8.71-.03-.3-.04-.61-.08-.91-.04-.24,.06-.28,.28-.28,1.68,0,3.36,0,5.04,0,.3,0,.61,.01,.91,0,.21-.01,.26,.08,.27,.26,.12,1.47,.25,2.95,.38,4.42,.01,.12,.03,.24,.04,.36,0,.11,.06,.16,.16,.19,2.35,.62,4.71,1.25,7.06,1.88,0,0,.02,0,.03,0l.05,.03c.11,.13,.1,.28,.1,.43,0,1.93,0,3.86,0,5.79,0,.15-.02,.3-.08,.44Z"/><path class="cls-2" d="M25.84,40.68c0-3.44,0-6.88,0-10.31v-.02c.11-.12,.26-.13,.42-.13,2.4,0,4.8,0,7.2,0,.42,0,.48,.08,.44,.49-.18,2.26-.4,4.52-.6,6.77-.03,.32-.07,.64-.08,.97-.01,.38-.07,.45-.44,.55-1.69,.46-3.38,.91-5.08,1.36-.48,.13-.96,.27-1.44,.39-.14,.03-.3,.09-.43-.04v-.02Z"/><path class="cls-5" d="M25.84,40.7c2.28-.61,4.55-1.23,6.83-1.83,.29-.08,.39-.2,.42-.51,.16-1.95,.34-3.89,.52-5.84,.06-.66,.11-1.31,.18-1.97,.02-.17-.03-.22-.19-.2-.06,0-.12,0-.18,0-2.4,0-4.8,0-7.21,0-.12,0-.24,0-.36-.01v-6.44c.11,0,.22-.01,.34-.01,4.76,0,9.52,0,14.29,0,.38,0,.38,0,.35,.39-.26,2.92-.53,5.85-.79,8.77-.29,3.28-.58,6.56-.87,9.83q-.08,.86-.91,1.09c-4.04,1.12-8.09,2.24-12.13,3.36-.07,.02-.14,.03-.21,.04-.09-.14-.06-.29-.07-.44,0-2.08,0-4.16,0-6.24Z"/><path class="cls-1" d="M17.31,23.86c-.11-.44-.11-.9-.15-1.34-.16-1.61-.3-3.22-.44-4.84-.04-.48-.09-.42,.4-.42,2.77,0,5.55,0,8.32,0,.13,0,.26,.01,.39,.02,0,2.05,0,4.11,0,6.16,0,.39-.01,.4-.42,.4-2.54,0-5.08,0-7.62,0-.16,0-.32,0-.49,.01Z"/></g></g></svg>