<?xml version="1.0" encoding="UTF-8"?><svg id="Capa_2" xmlns="http://www.w3.org/2000/svg" viewBox="0 0 50.93 57.96"><defs><style>.cls-1{fill:none;stroke:#fff;stroke-miterlimit:10;stroke-width:4.32px;}.cls-2{fill:#fade34;}</style></defs><g id="Capa_7"><g><path class="cls-2" d="M49.86,44.12l-23.15,13.55c-.67,.39-1.49,.39-2.16,.01L1.24,44.4c-.67-.38-1.08-1.09-1.09-1.86L0,15.71c0-.77,.4-1.49,1.07-1.87L24.22,.3c.67-.39,1.49-.39,2.16-.01l23.31,13.28c.67,.38,1.08,1.09,1.09,1.86l.16,26.82c0,.77-.4,1.49-1.07,1.87Z"/><path class="cls-1" d="M44.96,41.08l-18.5,10.83c-.53,.31-1.19,.31-1.72,0L6.11,41.3c-.54-.3-.87-.87-.87-1.49l-.12-21.44c0-.62,.32-1.19,.85-1.5L24.47,6.05c.53-.31,1.19-.31,1.72,0l18.63,10.61c.54,.3,.87,.87,.87,1.49l.12,21.44c0,.62-.32,1.19-.85,1.5Z"/><g><path d="M14.91,34.36c.01-.28-.46-.59,.04-.85,0-.12,.06-.21,.15-.28,.42-.25,.83-.53,1.24-.8,.64-.43,.94-.35,1.36,.29,.47,.71,1.07,.96,1.9,.8,.4-.08,.65-.33,.79-.7,.13-.33,.14-.68,.14-1.03,0-3.18,0-6.36,0-9.53,0-.32-.09-.67,.2-.93,1.01-.16,2.02-.17,3.03,0,.24,.2,.2,.48,.2,.74,0,3.51,.01,7.03,0,10.54,0,1.91-1.44,3.63-3.25,3.98-.9,.15-1.8,.23-2.71,0-.13-.02-.24-.08-.37-.1-.51-.14-.96-.42-1.44-.65-.05-.03-.1-.06-.14-.09-.34-.3-.63-.65-.99-.93-.12-.13-.24-.27-.16-.47Z"/><path d="M30.83,21.43h.36c.72,.03,1.41,.18,2.08,.46,.83,.4,1.41,1.06,1.9,1.82,.12,.18,.03,.25-.1,.34-.64,.41-1.28,.81-1.91,1.24-.27,.19-.35,0-.46-.17-.43-.69-1.06-1-1.87-.97-.68,.03-1.14,.35-1.32,.91-.18,.59,.05,1.24,.6,1.61,.62,.42,1.32,.66,1.99,.96,.7,.31,1.38,.64,2.02,1.05,1.66,1.07,2.35,2.71,1.98,4.67-.3,1.6-1.6,2.84-3.43,3.2-1.78,.35-3.51,.22-5.11-.74-.77-.46-1.36-1.11-1.85-1.85-.21-.31-.12-.44,.18-.6,.58-.31,1.15-.63,1.71-.98,.3-.19,.45-.19,.68,.13,.87,1.22,2.05,1.73,3.54,1.4,.63-.14,1.15-.45,1.28-1.17,.13-.73-.21-1.22-.81-1.58-.74-.45-1.55-.74-2.33-1.11-.69-.32-1.35-.67-1.96-1.15-1.91-1.5-2.29-4.76,.1-6.7,.39-.32,.91-.44,1.4-.6l1.35-.18Z"/></g></g></g></svg>