<?xml version="1.0" encoding="UTF-8"?><svg id="Capa_2" xmlns="http://www.w3.org/2000/svg" viewBox="0 0 58.14 51.93"><defs><style>.cls-1{fill:#61d9fa;}</style></defs><g id="Capa_6"><g><path class="cls-1" d="M56.3,21.66c-.43-.47-.9-.9-1.4-1.29-2.36-1.87-5.08-3.02-7.93-3.85-.81-.24-1.11-.56-.76-1.35,.03-.07,.05-.16,.07-.24,.64-3.1,1.09-6.22,.41-9.38-.56-2.58-1.79-4.65-4.56-5.36-1.47-.38-2.91-.15-4.32,.34-2.85,.99-5.22,2.75-7.45,4.72-1.29,1.13-1.27,1.13-2.56,0-2.39-2.09-4.9-3.98-8-4.89-3.88-1.13-6.94,.49-8.11,4.3-.19,.63-.31,1.29-.4,1.94-.43,3.04,.07,6.01,.74,8.96,.11,.5,.03,.67-.45,.81-1.89,.54-3.72,1.24-5.47,2.15-1.78,.93-3.43,2.03-4.68,3.64-1.89,2.42-1.89,5.12-.04,7.56,.51,.66,1.1,1.25,1.75,1.76,2.49,1.98,5.38,3.14,8.38,4.05,.5,.15,.63,.31,.5,.86-.53,2.15-.86,4.34-.89,6.56-.02,1.17,.1,2.32,.33,3.46,.92,4.45,4.26,6.44,8.59,5.08,2.86-.9,5.21-2.64,7.45-4.55,.52-.45,1.04-1.24,1.56-1.24,.52,0,1.04,.8,1.56,1.24,2.4,2.03,4.9,3.89,8.01,4.71,3.71,.97,6.6-.62,7.78-4.27,.39-1.19,.55-2.43,.58-3.67,.07-2.51-.32-4.96-.9-7.39-.11-.47-.02-.62,.43-.75,.93-.27,1.84-.59,2.74-.94,2.57-1.01,5.01-2.23,6.93-4.27,2.53-2.69,2.56-5.96,.08-8.7ZM31.09,7.94c2.37-2.18,4.78-4.29,7.96-5.21,2.71-.78,4.45,.27,5.15,3.01,.27,1.05,.36,2.12,.33,3.2-.02,2.05-.36,4.06-.81,6.06-.11,.47-.26,.56-.72,.45-2.24-.51-4.51-.84-6.79-1.06-.34-.03-.54-.17-.73-.43-1.33-1.87-2.77-3.66-4.31-5.36-.19-.21-.4-.37-.08-.67Zm-10.71,26.36c-1.78-.16-3.39-.47-4.99-.83-.28-.06-.25-.23-.18-.43,.52-1.53,1.02-3.06,1.77-4.67,1.09,2.05,2.18,3.94,3.41,5.93Zm-5.06-16.01c-.11-.32,.1-.37,.34-.42,1.57-.33,3.14-.62,4.86-.81-1.2,1.97-2.32,3.86-3.41,5.94-.77-1.6-1.27-3.16-1.79-4.71Zm3.33,8.22c-.19-.38-.2-.69,0-1.07,1.42-2.85,3.01-5.6,4.77-8.25,.22-.33,.45-.47,.86-.5,3.18-.21,6.36-.21,9.54,0,.4,.03,.65,.16,.87,.49,1.78,2.67,3.38,5.45,4.81,8.32,.19,.37,.14,.66-.03,1-1.41,2.82-2.97,5.55-4.72,8.18-.28,.42-.6,.6-1.08,.6-1.55,0-3.1,0-4.65,0-1.52,0-3.04,0-4.56,0-.48,0-.8-.17-1.09-.59-1.75-2.63-3.31-5.36-4.72-8.18Zm22.36,2.43c.78,1.61,1.28,3.19,1.81,4.76,.1,.29-.15,.31-.32,.35-1.56,.34-3.12,.64-4.9,.81,1.25-2,2.33-3.87,3.41-5.92Zm-3.41-11.88c1.73,.2,3.3,.49,4.87,.81,.32,.07,.42,.18,.31,.5-.51,1.51-1.03,3.02-1.75,4.64-1.11-2.06-2.21-3.98-3.43-5.95Zm-8.77-6.8c.23-.25,.38-.09,.53,.08,1.04,1.17,2.06,2.36,3.08,3.73h-6.75c1.01-1.39,2.07-2.61,3.14-3.81ZM14.05,5.37c.77-2.43,2.38-3.33,4.85-2.7,1.88,.48,3.49,1.49,5.04,2.62,1.07,.79,2.07,1.66,3.03,2.57,.28,.26,.3,.43,.03,.73-1.58,1.71-3.02,3.52-4.36,5.42-.2,.28-.43,.36-.76,.39-2.25,.23-4.5,.55-6.7,1.05-.52,.12-.65,0-.76-.5-.45-2-.78-4.01-.81-6.66-.02-.6,.09-1.78,.45-2.93Zm-1.67,27.43c-2.51-.78-4.96-1.71-7.14-3.24-.84-.59-1.6-1.27-2.16-2.15-.85-1.34-.77-2.67,.13-3.95,.71-1.01,1.67-1.76,2.71-2.41,1.98-1.25,4.15-2.06,6.37-2.75,.08-.02,.16-.04,.24-.05,.31-.09,.37,.11,.44,.34,.71,2.24,1.56,4.42,2.53,6.56,.15,.32,.09,.57-.04,.86-.94,2.09-1.78,4.22-2.47,6.41-.11,.34-.19,.52-.62,.39Zm13.89,10.13c-2.05,1.87-4.16,3.66-6.76,4.74-3.7,1.54-5.88,.29-6.48-3.65-.11-.72-.12-1.43-.13-2.33,.02-1.88,.36-3.89,.81-5.9,.11-.49,.3-.56,.73-.47,2.22,.48,4.45,.84,6.72,1.04,.4,.03,.65,.22,.87,.54,1.3,1.83,2.7,3.58,4.21,5.23,.25,.27,.4,.46,.04,.8Zm2.38-2.46c-.24,.26-.39,.2-.6-.03-1.05-1.17-2.06-2.37-3.11-3.78,2.32,.08,4.5,.1,6.86,0-1.06,1.42-2.09,2.64-3.15,3.82Zm14.64,5.24c-.74,2.08-2.27,2.92-4.43,2.48-1.71-.35-3.2-1.2-4.62-2.16-1.33-.9-2.54-1.96-3.73-3.04-.35-.32-.34-.52-.02-.86,1.53-1.64,2.93-3.39,4.22-5.23,.25-.35,.54-.51,.96-.54,2.21-.19,4.39-.53,6.55-1.02,.5-.11,.71-.02,.83,.54,.42,1.98,.77,3.96,.79,6.53,.03,.78-.1,2.07-.54,3.31Zm11.07-16.98c-1.59,1.65-3.59,2.64-5.69,3.46-.92,.36-1.88,.64-2.81,.99-.4,.15-.57,.11-.71-.34-.68-2.19-1.52-4.32-2.47-6.41-.15-.33-.17-.6-.02-.94,.95-2.08,1.78-4.22,2.48-6.4,.11-.36,.23-.53,.62-.4,2.83,.89,5.6,1.91,7.92,3.85,1.06,.89,1.91,1.93,1.98,3.37-.04,1.16-.56,2.05-1.31,2.82Z"/><path class="cls-1" d="M28.98,31.17c2.98,.02,5.28-2.26,5.28-5.21,0-2.87-2.27-5.17-5.13-5.21-2.88-.04-5.23,2.29-5.24,5.18-.01,2.88,2.26,5.22,5.09,5.23Z"/></g></g></svg>