<?xml version="1.0" encoding="UTF-8"?><svg id="Capa_2" xmlns="http://www.w3.org/2000/svg" viewBox="0 0 57.68 42.87"><defs><style>.cls-1{fill:#cf649a;}</style></defs><g id="Capa_1-2"><path class="cls-1" d="M54.3,25.7c-3.06-1.51-6.18-1.4-9.28-.12-.49,.2-.64,.11-.89-.32-1.2-2.05-1.28-4.14-.43-6.32,.24-.61,.06-.95-.58-1.02-.67-.08-1.35-.06-2.02,.05-.52,.09-.83,.35-.97,.86-.25,.87-.41,1.77-.83,2.59-.74,1.43-1.5,2.85-2.32,4.24-.21,.35-.43,.7-.68,1.12-.16-.3-.28-.5-.38-.71-.83-1.81-.69-3.62,0-5.44,.24-.64,.02-1-.65-1.04-.56-.04-1.12,0-1.68,.04-.7,.05-1.17,.36-1.27,1.13-.05,.41-.21,.82-.37,1.2-1.6,3.68-3.19,7.37-5,10.95-.08,.17-.15,.38-.41,.45-.11-.66-.04-1.29,.08-1.9,.35-1.67,.81-3.31,1.26-4.95,.29-1.03-.29-1.64-1.35-1.44-.12,.02-.24,.16-.4,.04,0-.46,.01-.92,0-1.39-.05-1.52-.98-2.25-2.47-1.93-1.45,.32-2.62,1.17-3.55,2.26-.83,.98-1.86,1.6-2.95,2.18-1.1,.58-2.19,1.15-3.27,1.76-.38,.22-.62,.17-.91-.14-.84-.88-1.81-1.62-2.78-2.35-1.32-1-2.67-1.98-3.82-3.17-2.46-2.53-2.7-5.39-.76-8.32,.66-1,1.45-1.9,2.38-2.65,5.09-4.15,10.74-7.09,17.37-7.81,2.01-.22,4.02-.06,5.89,.82,1.57,.74,2.23,2.09,1.91,3.79-.31,1.72-1.2,3.13-2.37,4.37-2.79,2.95-6.29,4.54-10.27,5.1-2.46,.35-4.82,.27-6.7-1.69-.1-.11-.23-.17-.38-.09-.15,.08-.15,.22-.15,.36,0,.55,.31,.97,.65,1.36,1.38,1.52,3.2,2.06,5.16,2.13,3.77,.14,7.36-.63,10.6-2.57,3.16-1.88,5.43-4.54,6.39-8.17,.79-3-.25-5.7-2.76-7.22-1.09-.66-2.27-1.09-3.51-1.35-2.69-.55-5.39-.52-8.06,.08-5.52,1.25-10.52,3.66-15.05,7.03-2.42,1.8-4.49,3.93-5.88,6.66-1.21,2.38-1.16,4.65,.38,6.87,1.26,1.81,2.89,3.22,4.66,4.51,1.55,1.13,3.14,2.19,4.69,3.31,.76,.55,.73,.56-.1,.99-2.48,1.28-4.88,2.68-6.82,4.72-1.32,1.39-1.97,3.03-1.8,4.97,.14,1.58,1.16,2.9,2.44,3.16,1.21,.24,2.41,.22,3.61-.06,5.48-1.29,8.66-7.15,6.77-12.44-.07-.2-.27-.42,.05-.6,.94-.53,1.88-1.07,2.95-1.68-.34,1.09-.53,2.02-.64,2.96-.25,2.13,.06,4.15,1.34,5.93,.78,1.09,2.25,1.16,3.15,.16,.23-.26,.42-.56,.6-.86,.65-1.07,1.1-2.24,1.7-3.5,0,.74,0,1.31,0,1.88,0,.47,.09,.93,.27,1.37,.41,1.03,1.47,1.3,2.32,.58,.5-.42,.92-.92,1.25-1.5,1.37-2.39,2.65-4.83,3.76-7.35,.44-1,.86-2,1.34-3.11,.28,1.18,.5,2.23,.96,3.21q.87,1.85-.5,3.39s-.03,.03-.05,.05c-.86,1.07-1.85,2.05-2.6,3.21-.61,.94-.21,1.62,.9,1.69,1.62,.1,3.03-.46,4.35-1.3,1.54-.98,2.13-2.43,1.89-4.21-.07-.53-.25-1.04-.43-1.55-.11-.29-.11-.52,.07-.78,1.17-1.69,2.17-3.48,3.2-5.45,.35,1.48,.62,2.79,1.31,3.94,.27,.45,.18,.68-.21,1.04-1.4,1.27-2.59,2.7-2.87,4.67-.18,1.25,.7,2.05,1.91,1.73,.52-.13,1.03-.33,1.51-.55,2.81-1.3,3.7-3.02,3-5.91-.11-.47,.15-.52,.44-.61,1.65-.54,3.34-.64,5.05-.43,1.5,.18,2.95,.57,4.14,1.55,1.68,1.38,2.73,3.92-.02,5.69-.17,.11-.44,.22-.28,.47,.15,.24,.43,.13,.64,.07,1.18-.33,2.38-1.82,2.49-3.05,.2-2.33-1.07-4.53-3.37-5.66Zm-41.36,6.78c0,3.39-2.4,6.43-5.45,7.07-1.57,.33-2.35-.46-2.02-2.02,.23-1.11,.75-2.06,1.52-2.87,1.55-1.62,3.45-2.77,5.33-3.94,.3-.19,.41-.09,.46,.21,.1,.55,.19,1.1,.16,1.53Zm11.61-7.85c-.16,1.11-.53,2.18-.92,3.23-.65,1.77-1.28,3.56-2.13,5.25-.21,.42-.41,1.07-.94,.98-.53-.09-.5-.78-.59-1.25-.08-.36-.05-.74-.07-1.1,.06-2.57,.97-4.8,2.54-6.77,.34-.42,.79-.74,1.28-.96,.59-.26,.91-.03,.82,.62Zm7.93,9.6c.96-1.11,1.92-2.09,2.77-3.17-.03,1.4-1.34,2.91-2.77,3.17Zm10.62-4.92c.02,1.27-.55,2.19-1.66,2.78-.2,.11-.45,.31-.64,.18-.23-.16-.04-.44,.03-.65,.32-1.07,.84-2.02,1.66-2.79,.14-.13,.25-.41,.48-.31,.18,.08,.1,.33,.13,.51,.01,.09,0,.19,0,.28Z"/></g></svg>