<?xml version="1.0" encoding="UTF-8"?><svg id="Capa_2" xmlns="http://www.w3.org/2000/svg" viewBox="0 0 58.06 35.12"><defs><style>.cls-1{fill:#00c0b6;}.cls-2{fill:#00b4b5;}.cls-3{fill:#0099b3;}.cls-4{fill:#00a9b4;}</style></defs><g id="Capa_5"><g><path class="cls-2" d="M40.39,4.36c1.22,.92,2.24,2.06,3.33,3.12,4.26,4.13,9.1,4.1,13.26-.09,.27-.28,.45-.7,1.08-.76-1.1,3.77-2.86,6.97-6.34,8.92-6.05,3.39-14.36,2.39-19.44-2.28-.78-.72-1.6-1.42-2.23-2.29,.72-1.16,1.93-1.77,3.03-2.39,2.21-1.24,4.31-2.67,6.55-3.86,.25-.13,.48-.31,.77-.37Z"/><path class="cls-4" d="M16.63,29.85c-.99-.93-1.96-1.88-2.97-2.79-3.99-3.58-8.95-3.34-12.61,.61-.28,.3-.55,.59-.81,.87-.31-.04-.26-.24-.21-.38,1.38-4.52,3.82-8.19,8.54-9.64,4.97-1.53,9.92-1.48,14.51,1.37,1.65,1.03,3.16,2.29,4.44,3.78-.22,1.15-1.33,1.38-2.09,1.87-2.17,1.39-4.4,2.68-6.57,4.07-.75,.48-1.47,.35-2.24,.25Z"/><path class="cls-1" d="M16.63,29.85c4.04-.91,6.95-3.9,10.49-5.73,.17-.09,.27-.3,.41-.45,.98,.75,1.7,1.76,2.71,2.5,3.79,2.77,8.4,2.45,11.74-.87,.4-.4,.72-.88,1.26-1.54,.06,3.81-4.04,8.86-8.39,10.36-6.1,2.1-13.69,.99-18.21-4.26Z"/><path class="cls-3" d="M40.39,4.36c-.87,1.07-2.19,1.5-3.31,2.2-2.34,1.48-4.78,2.8-7.04,4.42-.86-.76-1.67-1.58-2.59-2.27-3.52-2.61-8.09-2.19-11.33,.99-.43,.42-.86,.84-1.39,1.19,.37-2.15,1.28-4.04,2.57-5.74C20.01,1.57,23.75,.19,28.14,.02c4.7-.18,8.88,.9,12.26,4.34Z"/></g></g></svg>