<?xml version="1.0" encoding="UTF-8"?><svg id="Capa_2" xmlns="http://www.w3.org/2000/svg" viewBox="0 0 57.09 49.26"><defs><style>.cls-1{fill:#007efe;}</style></defs><g id="Capa_4"><g><path class="cls-1" d="M40.76,14.59c0,4.12-.03,8.25,.02,12.37,.01,1.15-.39,1.84-1.39,2.39-2.74,1.51-5.44,3.12-8.16,4.67-.61,.35-1.05,.78-1.05,1.51,0,.75,.44,1.2,1.07,1.55,1.51,.84,3.01,1.69,4.5,2.56,.67,.39,1.3,.38,1.97,0,3.39-1.96,6.78-3.9,10.17-5.84,.71-.4,1.03-.95,1.03-1.77-.01-2.85,.02-5.71,0-8.56,0-.87,.33-1.46,1.1-1.88,1.51-.83,2.99-1.71,4.49-2.57,1.34-.76,2.57-.05,2.57,1.48,0,5.41,0,10.81,0,16.22,0,.8-.32,1.34-1.01,1.74-6.1,3.49-12.19,6.99-18.28,10.5-.72,.41-1.37,.44-2.1,.02-4.78-2.75-9.56-5.48-14.35-8.2-.64-.37-.95-.89-.95-1.63,0-2.63,.01-5.26,0-7.9,0-.34,.18-.47,.42-.6,3.78-2.16,7.55-4.34,11.33-6.49,.32-.18,.43-.38,.43-.74,0-2.55,.02-5.11,.02-7.66,0-1.17-.87-1.92-1.94-1.69-.25,.05-.47,.19-.69,.31-2.81,1.62-5.63,3.22-8.43,4.87-.79,.46-1.47,.46-2.26,0-2.8-1.64-5.62-3.25-8.43-4.87-.38-.22-.76-.41-1.21-.36-.87,.1-1.44,.76-1.45,1.71,0,2.95,0,5.9,0,8.85,0,1.92,0,3.84,0,5.76,0,1.45-1.23,2.17-2.49,1.47-1.61-.91-3.22-1.84-4.83-2.75C.28,28.68,0,28.18,0,27.5,.02,18.92,.03,10.34,.05,1.77,.05,.23,1.29-.45,2.63,.32c5.56,3.19,11.13,6.37,16.68,9.58,.78,.45,1.45,.43,2.22,0C27.08,6.68,32.65,3.5,38.2,.29c1.15-.67,2.2-.06,2.47,.75,.1,.29,.09,.59,.09,.89,0,4.22,0,8.44,0,12.65Z"/><path class="cls-1" d="M49.17,7.36c0-.92,0-1.84,0-2.76,0-.68,.28-1.18,.86-1.53,1.52-.91,3.04-1.83,4.56-2.73,1.23-.72,2.49,.02,2.5,1.45,0,1.84,0,3.68,0,5.52,0,.7-.29,1.21-.89,1.57-1.51,.9-3.01,1.81-4.52,2.71-1.24,.73-2.5,.02-2.51-1.42,0-.94,0-1.87,0-2.81Z"/></g></g></svg>