<?xml version="1.0" encoding="UTF-8"?><svg id="Capa_2" xmlns="http://www.w3.org/2000/svg" viewBox="0 0 47 47.68"><defs><style>.cls-1{fill:#fff;}</style></defs><g id="Capa_1-2"><g><path class="cls-1" d="M47,23.91c0,.55-.03,1.09-.06,1.63,.04-.54,.06-1.08,.06-1.63Z"/><path class="cls-1" d="M4.74,38.2c-.1-.14-.2-.28-.3-.42,.1,.14,.2,.28,.3,.42Z"/><path class="cls-1" d="M44.21,35.11c-.08,.15-.16,.29-.24,.44,.08-.15,.16-.29,.24-.44Z"/><path class="cls-1" d="M1.21,31.38c-.11-.34-.21-.67-.31-1.02,.1,.34,.2,.68,.31,1.02Z"/><path class="cls-1" d="M1.92,33.28c-.16-.37-.31-.74-.44-1.12,.14,.38,.29,.75,.44,1.12Z"/><path class="cls-1" d="M3.58,36.49c-.11-.18-.22-.35-.32-.53,.1,.18,.21,.35,.32,.53Z"/><path class="cls-1" d="M2.65,34.84c-.13-.26-.26-.52-.39-.78,.12,.26,.26,.52,.39,.78Z"/><path class="cls-1" d="M44.9,33.7c-.09,.2-.18,.4-.27,.6,.09-.2,.18-.4,.27-.6Z"/><path class="cls-1" d="M31.33,40.4c0-2.42-1.57-5.62-3.72-6.76,7.82-.82,11.54-4.77,11.54-10.14,0-2.31-.97-4.53-2.6-6.41,.55-1.87,1.24-5.69-.2-7.15-3.53,0-5.66,2.33-6.16,2.95-1.76-.61-3.69-.96-5.72-.96s-3.95,.35-5.71,.96c-.51-.63-2.64-2.94-6.16-2.94-1.43,1.45-.75,5.26-.21,7.13-1.65,1.88-2.62,4.12-2.62,6.43,0,5.37,3.73,9.32,11.56,10.14-1.36,.72-2.47,2.24-3.11,3.9-1.19,.19-2.46,.24-3.31,.24-1.75,0-2.19-.28-3.12-1.53-.94-1.25-1.94-2.09-3.14-2.43-.65-.07-1.08,.45-.52,.89,1.91,1.36,2.04,3.58,2.81,5.03,.69,1.31,2.12,2,3.73,2h2.95v4.08c0,.45,.07,.82,.17,1.13,1.83,.46,3.73,.71,5.7,.71,2.72,0,5.34-.48,7.77-1.34,.02-.17,.06-.31,.06-.5v-5.44Z"/><path class="cls-1" d="M.08,25.69c-.04-.59-.07-1.18-.08-1.78,0,.6,.03,1.19,.08,1.78Z"/><path class="cls-1" d="M.72,29.7c-.12-.47-.22-.94-.3-1.42,.09,.48,.19,.95,.3,1.42Z"/><path class="cls-1" d="M47,23.85h0C47,10.67,36.48,0,23.5,0c12.98,0,23.49,10.68,23.5,23.85Z"/><path class="cls-1" d="M43.13,36.94c-.08,.12-.16,.24-.24,.36,.08-.12,.16-.24,.24-.36Z"/><path class="cls-1" d="M23.5,0C10.52,0,0,10.67,0,23.84H0C0,10.68,10.52,0,23.5,0Z"/><path class="cls-1" d="M.31,27.72c-.09-.53-.16-1.07-.21-1.62,.05,.55,.12,1.09,.21,1.62Z"/><path class="cls-1" d="M45.67,31.76c-.08,.24-.17,.48-.27,.72,.09-.24,.18-.48,.27-.72Z"/><path class="cls-1" d="M46.63,28.06c-.06,.36-.13,.71-.21,1.06,.08-.35,.15-.7,.21-1.06Z"/><path class="cls-1" d="M11.51,44.35c-.09-.05-.18-.11-.27-.16,.09,.05,.18,.11,.27,.16Z"/><path class="cls-1" d="M13.43,45.39c-.09-.05-.19-.09-.28-.14,.09,.05,.19,.09,.28,.14Z"/><path class="cls-1" d="M46.9,26.01c-.05,.51-.1,1.02-.18,1.53,.08-.5,.14-1.01,.18-1.53Z"/><path class="cls-1" d="M8.65,42.32c-.1-.08-.19-.17-.29-.25,.1,.08,.19,.17,.29,.25Z"/><path class="cls-1" d="M36.65,43.6h0Z"/><path class="cls-1" d="M38.49,42.21s-.08,.07-.12,.1c.04-.03,.08-.07,.12-.1Z"/><path class="cls-1" d="M40.78,39.99c.07-.08,.14-.16,.21-.24-.07,.08-.14,.16-.21,.24Z"/><path class="cls-1" d="M5.45,39.11s-.06-.07-.09-.1c.03,.04,.06,.07,.09,.1Z"/><path class="cls-1" d="M46.27,29.75c-.11,.43-.23,.86-.36,1.28,.13-.42,.25-.85,.36-1.28Z"/><path class="cls-1" d="M7.07,40.89c-.1-.1-.2-.2-.29-.3,.1,.1,.2,.2,.29,.3Z"/><path d="M42.9,37.3c.08-.12,.16-.24,.24-.36,.29-.45,.57-.92,.84-1.39,.08-.15,.16-.29,.24-.44,.14-.27,.28-.54,.41-.81,.09-.2,.18-.4,.27-.6,.18-.4,.35-.8,.5-1.21,.09-.24,.18-.48,.27-.72,.08-.24,.17-.48,.24-.73,.13-.42,.25-.85,.36-1.28,.05-.21,.1-.41,.14-.62,.08-.35,.15-.7,.21-1.06,.03-.17,.07-.35,.09-.52,.08-.5,.14-1.01,.18-1.53,.01-.16,.02-.32,.04-.47,.04-.54,.06-1.08,.06-1.63,0-.01,0-.03,0-.04h0c0-13.19-10.52-23.87-23.5-23.87S0,10.68,0,23.85h0v.05c0,.6,.03,1.19,.08,1.78,.01,.14,.02,.28,.03,.41,.05,.55,.12,1.09,.21,1.62,.03,.19,.06,.37,.1,.56,.09,.48,.19,.95,.3,1.42,.06,.22,.12,.44,.18,.66,.1,.34,.2,.68,.31,1.02,.09,.26,.17,.52,.27,.78,.14,.38,.29,.75,.44,1.12,.11,.26,.23,.52,.34,.77,.12,.26,.26,.52,.39,.78,.19,.38,.4,.75,.61,1.12,.1,.18,.21,.35,.32,.53,.27,.44,.56,.88,.86,1.3,.1,.14,.2,.28,.3,.42,.2,.27,.41,.54,.62,.8,.03,.04,.06,.07,.09,.1,.42,.51,.87,1.01,1.33,1.48,.1,.1,.2,.2,.29,.3,.41,.41,.84,.81,1.29,1.19,.1,.08,.19,.17,.29,.25,.82,.68,1.68,1.3,2.59,1.87,.09,.05,.18,.11,.27,.16,.53,.32,1.08,.62,1.64,.9,.09,.05,.19,.09,.28,.14,1.39,.67,2.85,1.23,4.38,1.61v-.03c-.11-.32-.18-.68-.18-1.13v-4.08h-2.95c-1.61,0-3.04-.7-3.73-2-.77-1.45-.9-3.67-2.81-5.03-.57-.45-.13-.97,.52-.89,1.2,.34,2.2,1.18,3.14,2.43,.94,1.25,1.38,1.53,3.12,1.53,.85,0,2.12-.05,3.31-.24,.64-1.66,1.75-3.18,3.11-3.9-7.83-.82-11.56-4.77-11.56-10.14,0-2.31,.97-4.55,2.62-6.43-.54-1.87-1.22-5.68,.21-7.13,3.52,0,5.65,2.32,6.16,2.94,1.75-.61,3.68-.96,5.71-.96s3.96,.35,5.72,.96c.5-.62,2.64-2.95,6.16-2.95,1.44,1.45,.75,5.28,.2,7.15,1.64,1.88,2.6,4.11,2.6,6.41,0,5.37-3.73,9.32-11.54,10.14,2.15,1.14,3.72,4.34,3.72,6.76v5.44c0,.19-.04,.34-.06,.5v.03c1.91-.68,3.71-1.62,5.36-2.76h.02c.59-.42,1.16-.85,1.71-1.31,.04-.03,.08-.07,.12-.1,.81-.68,1.58-1.42,2.29-2.21,.07-.08,.14-.16,.21-.24,.69-.78,1.32-1.6,1.9-2.46Z"/></g></g></svg>