<?xml version="1.0" encoding="UTF-8"?><svg id="Capa_2" xmlns="http://www.w3.org/2000/svg" viewBox="0 0 60 60"><defs><style>.cls-1{fill:#0961b8;}.cls-2{fill:#fff;stroke:#fff;stroke-miterlimit:10;stroke-width:2px;}</style></defs><g id="Capa_8"><g><rect class="cls-1" width="60" height="60" rx="7.99" ry="7.99"/><g><path class="cls-2" d="M21.22,18.7c.04,1.2-.84,2.16-2.24,2.16-1.24,0-2.12-.96-2.12-2.16s.92-2.2,2.2-2.2,2.16,.96,2.16,2.2Zm-3.92,24.8V24.14h3.52v19.36h-3.52Z"/><path class="cls-2" d="M26.66,29.38c0-2-.04-3.64-.16-5.24h3.12l.2,3.2h.08c.96-1.84,3.2-3.64,6.4-3.64,2.68,0,6.84,1.6,6.84,8.24v11.56h-3.52v-11.16c0-3.12-1.16-5.72-4.48-5.72-2.32,0-4.12,1.64-4.72,3.6-.16,.44-.24,1.04-.24,1.64v11.64h-3.52v-14.12Z"/></g></g></g></svg>